# xmcd
#
# Track frame offsets: 
#        150
#        14821
#        31965
#        51695
#        66322
#        85866
#        103759
#        120070
#        135798
#        158573
#        178227
#        197722
#        223413
#        242032
#        262261
#        278850
#
# Disc length: 3964 seconds
#
# Revision: 1
# Processed by: cddbd v1.5.2PL0 Copyright (c) Steve Scherf et al.
# Submitted via: ExactAudioCopy v1.1
#
DISCID=f00f7a10
DTITLE=Nelly - Brass Knuckles
DYEAR=2008
DGENRE=Hip-Hop
TTITLE0=U Ain't Him (feat. Rick Ross)
TTITLE1=Hold Up (feat. T.I. and LL Cool J)
TTITLE2=L.A. (feat. Snoop Dogg and Nate Dogg)
TTITLE3=Long Night (feat. Usher)
TTITLE4=Lie (feat. St. Lunatics)
TTITLE5=Party People (feat. Fergie)
TTITLE6=Self-Esteem (feat. Chuck D)
TTITLE7=Body On Me (feat. Akon and Ashanti)
TTITLE8=Stepped On My J'z (feat. Jermaine Dupri and Ciara)
TTITLE9=Let It Go Lil Mama (feat. Pharrell)
TTITLE10=One And Only
TTITLE11=Chill (feat. St. Lunatics)
TTITLE12=Who Fucks Wit Me (feat. Avery Storm)
TTITLE13=Ucud Gedit (feat. Gucci Maine and R. Kelly)
TTITLE14=Bay (Bonus Track)
TTITLE15=Wadsyaname (Bonus Track)
EXTD=
EXTT0=
EXTT1=
EXTT2=
EXTT3=
EXTT4=
EXTT5=
EXTT6=
EXTT7=
EXTT8=
EXTT9=
EXTT10=
EXTT11=
EXTT12=
EXTT13=
EXTT14=
EXTT15=
PLAYORDER=
